# xmcd
#
# Track frame offsets: 
#        187
#        25517
#        58990
#        77745
#        99360
#        125257
#        151070
#        184540
#        202112
#        223182
#        245137
#
# Disc length: 3706 seconds
#
# Revision: 3
# Processed by: cddbd v1.5.2PL0 Copyright (c) Steve Scherf et al.
# Submitted via: ExactAudioCopyFreeDBPlugin 1.0
#
DISCID=920e780b
DTITLE=Howling Iguanas - Howling Iguanas
DYEAR=1994
DGENRE=Blues
TTITLE0=Saturday Morning
TTITLE1=Self Control
TTITLE2=Psycho Train
TTITLE3=Where'd Ya Go ?
TTITLE4=When Life Has It's Way
TTITLE5=Everybody Wants Something
TTITLE6=Soul
TTITLE7=Free
TTITLE8=Throw It All Away
TTITLE9=All Behind Me
TTITLE10=When All You See Is Blue
EXTD=
EXTT0=
EXTT1=
EXTT2=
EXTT3=
EXTT4=
EXTT5=
EXTT6=
EXTT7=
EXTT8=
EXTT9=
EXTT10=
PLAYORDER=
